<svg width="109" height="100" viewBox="0 0 109 100" fill="none" xmlns="http://www.w3.org/2000/svg">
<path d="M79.6818 35.9609H29.2779C28.8323 35.9609 28.405 36.1237 28.0899 36.4136C27.7748 36.7034 27.5978 37.0965 27.5978 37.5065V66.8726H81.3619V37.5065C81.3619 37.0965 81.1849 36.7034 80.8698 36.4136C80.5547 36.1237 80.1274 35.9609 79.6818 35.9609ZM78.0017 62.2358C78.0017 62.6458 77.8246 63.0389 77.5096 63.3287C77.1945 63.6186 76.7671 63.7814 76.3215 63.7814H32.6382C32.1926 63.7814 31.7652 63.6186 31.4501 63.3287C31.135 63.0389 30.958 62.6458 30.958 62.2358V40.5976C30.958 40.1877 31.135 39.7946 31.4501 39.5047C31.7652 39.2149 32.1926 39.052 32.6382 39.052H76.3215C76.7671 39.052 77.1945 39.2149 77.5096 39.5047C77.8246 39.7946 78.0017 40.1877 78.0017 40.5976V62.2358Z" fill="white"/>
<path d="M21.9156 69.9638L23.5957 73.0549H85.364L87.0441 69.9638H21.9156Z" fill="white"/>
<path d="M34.3183 60.6903H74.6414V42.1432H34.3183V60.6903ZM63.3728 47.8727L65.7485 45.6872L70.7889 50.324C71.1038 50.6138 71.2808 51.0069 71.2808 51.4167C71.2808 51.8266 71.1038 52.2196 70.7889 52.5095L65.7485 57.1462L63.3728 54.9608L67.2253 51.4167L63.3728 47.8727ZM51.296 46.0891L54.3034 47.4709L49.263 56.7444L46.2556 55.3626L51.296 46.0891ZM38.1708 50.324L43.2112 45.6872L45.5869 47.8727L41.7344 51.4167L45.5869 54.9608L43.2112 57.1462L38.1708 52.5095C37.8559 52.2196 37.6789 51.8266 37.6789 51.4167C37.6789 51.0069 37.8559 50.6138 38.1708 50.324Z" fill="white"/>
<path d="M15.8369 48.3256H24.2375V37.5065C24.2375 36.2767 24.7685 35.0973 25.7138 34.2278C26.6591 33.3582 27.9411 32.8697 29.2779 32.8697H79.6818C81.0186 32.8697 82.3006 33.3582 83.2459 34.2278C84.1911 35.0973 84.7222 36.2767 84.7222 37.5065V48.3256C89.1781 48.3256 93.4516 46.6972 96.6025 43.7986C99.7533 40.9001 101.523 36.9689 101.523 32.8697C101.523 28.7706 99.7533 24.8393 96.6025 21.9408C93.4516 19.0422 89.1781 17.4138 84.7222 17.4138H83.6973C83.3497 17.4139 83.0107 17.3147 82.7269 17.1301C82.4432 16.9455 82.2287 16.6844 82.1129 16.3829C81.0575 13.6273 79.1311 11.2246 76.5809 9.48306C74.0308 7.74154 70.9732 6.74063 67.8004 6.60876C64.6276 6.47688 61.4843 7.22005 58.7739 8.74291C56.0634 10.2658 53.9093 12.4989 52.588 15.1557C52.4744 15.3826 52.3027 15.5807 52.0877 15.7332C51.8727 15.8856 51.6207 15.9879 51.3533 16.0312C51.0859 16.0745 50.8111 16.0575 50.5524 15.9818C50.2937 15.906 50.0589 15.7737 49.8679 15.5962C47.6432 13.5267 44.8002 12.112 41.6997 11.532C38.5993 10.9519 35.3814 11.2325 32.4548 12.3383C29.5281 13.444 27.0247 15.325 25.2624 17.7422C23.5002 20.1595 22.5587 23.004 22.5574 25.9146V31.3241C22.5574 31.734 22.3804 32.1272 22.0653 32.417C21.7502 32.7069 21.3228 32.8697 20.8773 32.8697H15.8369C13.6089 32.8697 11.4721 33.6839 9.89671 35.1332C8.32128 36.5824 7.43622 38.5481 7.43622 40.5976C7.43622 42.6472 8.32128 44.6128 9.89671 46.0621C11.4721 47.5114 13.6089 48.3256 15.8369 48.3256ZM94.8029 37.5065H91.4427V34.4153H94.8029V37.5065ZM84.7222 22.0506C87.3949 22.0531 89.9575 23.0309 91.8474 24.7695C93.7373 26.508 94.8003 28.8654 94.8029 31.3241H91.4427C91.4427 29.6845 90.7346 28.112 89.4743 26.9525C88.2139 25.7931 86.5046 25.1418 84.7222 25.1418V22.0506Z" fill="#EE2284"/>
<path d="M104.884 88.5108H60.9617C60.6598 87.4486 60.0559 86.4795 59.2119 85.7032C58.368 84.9268 57.3146 84.3713 56.1599 84.0935V74.6005H52.7997V84.0935C51.645 84.3713 50.5916 84.9268 49.7477 85.7032C48.9037 86.4795 48.2998 87.4486 47.9979 88.5108H4.07593V91.602H47.9979C48.3646 92.9274 49.2009 94.1027 50.3748 94.9422C51.5486 95.7816 52.993 96.2373 54.4798 96.2373C55.9666 96.2373 57.411 95.7816 58.5848 94.9422C59.7587 94.1027 60.595 92.9274 60.9617 91.602H104.884V88.5108ZM54.4798 93.1476C53.8152 93.1476 53.1655 92.9663 52.6129 92.6266C52.0604 92.2869 51.6297 91.8042 51.3753 91.2393C51.121 90.6745 51.0545 90.053 51.1841 89.4533C51.3138 88.8537 51.6338 88.3029 52.1037 87.8706C52.5737 87.4383 53.1724 87.1439 53.8242 87.0246C54.4761 86.9053 55.1517 86.9666 55.7657 87.2005C56.3797 87.4345 56.9045 87.8307 57.2738 88.339C57.643 88.8474 57.8401 89.445 57.8401 90.0564C57.8401 90.8762 57.486 91.6625 56.8559 92.2422C56.2257 92.8219 55.371 93.1476 54.4798 93.1476Z" fill="white"/>
</svg>
