<svg width="91" height="86" viewBox="0 0 91 86" fill="none" xmlns="http://www.w3.org/2000/svg">
<g clip-path="url(#clip0_40_134)">
<path d="M0.843994 8.7245V60.5299C0.843994 61.825 1.99537 63.2565 3.36264 63.2565H87.5573C88.9245 63.2565 90.0759 61.825 90.0759 60.5299V9.06532C90.0759 7.56569 88.7806 6.67955 87.1975 6.67955H3.36264C1.99537 6.67955 0.843994 7.42936 0.843994 8.7245Z" fill="#EE2284"/>
<path d="M85.7583 10.7694H5.16168V58.4849H85.7583V10.7694Z" fill="#CDEEF9"/>
<path d="M36.105 22.562L22.9361 35.1043L16.6755 29.3785L5.44952 39.4669C5.37756 39.5351 5.44952 58.5531 5.44952 58.5531H85.7583V42.1935L72.1576 29.3103L58.2691 42.398L36.105 22.562Z" fill="#3C8E51"/>
<path d="M36.105 22.6983L22.9361 35.3088L47.8347 58.4849H76.1874L36.105 22.6983Z" fill="#54B265"/>
<path d="M16.6755 29.4466L5.44952 39.4669C5.37756 39.5351 5.44952 58.4167 5.44952 58.4167H48.1945L16.6755 29.4466Z" fill="#54B265"/>
<path d="M57.0457 26.4474C59.6687 26.4474 61.7951 24.4332 61.7951 21.9485C61.7951 19.4638 59.6687 17.4496 57.0457 17.4496C54.4227 17.4496 52.2963 19.4638 52.2963 21.9485C52.2963 24.4332 54.4227 26.4474 57.0457 26.4474Z" fill="#E9B526"/>
<path d="M60.0681 46.8287C56.3261 43.3523 51.3608 41.4437 46.1076 41.4437C46.0356 41.4437 46.0356 41.4437 45.9637 41.4437C42.1497 42.1253 38.4797 42.5343 35.3134 44.4429L35.3854 44.1021C35.6013 43.0115 34.8097 41.9208 33.6583 41.7163C32.5069 41.5118 31.3556 42.2617 31.1397 43.3523L30.1322 48.601C29.9163 49.6916 30.7079 50.7823 31.8593 50.9868L37.4003 51.9411C37.5442 51.9411 37.6881 52.0092 37.7601 52.0092C38.7676 52.0092 39.7031 51.3276 39.847 50.3051C40.0629 49.2145 39.2713 48.1238 38.1199 47.9193L37.7601 47.8512C40.2068 46.4197 43.0133 46.2834 45.9637 45.6017C46.0356 45.6017 46.0356 45.6017 46.1076 45.6017C50.2094 45.6017 54.0953 47.1014 56.9738 49.828C60.9316 53.5089 62.5148 58.8939 61.0755 64.0063C60.7877 65.0969 61.5073 66.1876 62.6587 66.5284C62.8746 66.5965 63.0185 66.5965 63.2344 66.5965C64.1699 66.5965 65.1054 65.9831 65.3213 65.0969C67.1203 58.4849 65.1054 51.5321 60.0681 46.8287Z" fill="#EE2284"/>
<path d="M60.14 69.4595L54.599 68.5052C53.4476 68.3007 52.2963 69.0505 52.0804 70.1411C51.8645 71.2318 53.1598 72.8677 54.3831 73.0722L54.5271 72.9359C52.0804 74.4355 49.2739 75.5261 46.2515 75.5261C46.1796 75.5261 46.1796 75.5261 46.1076 75.5261C42.0058 75.5261 38.1199 73.7539 35.2415 71.0273C31.2836 67.3463 29.7004 61.6887 31.1397 56.5763C31.4275 55.4857 30.7799 54.2587 29.6285 53.986C28.4771 53.7134 27.3257 54.3268 26.9659 55.4175C25.0949 61.9613 27.1098 69.255 32.2191 73.9584C35.9611 77.4348 40.9264 79.616 46.1796 79.616C46.2515 79.616 46.2515 79.616 46.3235 79.616C50.0655 79.616 53.5916 78.3209 56.6859 76.4805C56.47 77.5711 57.2616 78.5936 58.413 78.7981C58.5569 78.7981 58.7008 78.7981 58.7728 78.7981C59.7802 78.7981 60.7157 78.1164 60.8597 77.0939L61.8671 71.8452C61.9391 71.2999 61.8671 70.7546 61.5073 70.2774C61.1475 69.8003 60.7157 69.5276 60.14 69.4595Z" fill="#EE2284"/>
<path d="M63.2344 67.1419C63.0185 67.1419 62.7307 67.1419 62.5148 67.0737C61.0036 66.6647 60.0681 65.2332 60.4279 63.7336C61.7232 58.8939 60.212 53.7134 56.47 50.2369C53.6636 47.6467 49.9935 46.2152 46.1076 46.2152L46.0357 45.5336V46.2152C43.3731 46.3516 41.3582 46.7605 39.4872 47.7148C40.3507 48.3283 40.8544 49.3508 40.6386 50.4414C40.3507 51.8729 38.9115 52.8954 37.2564 52.6227L31.7154 51.6684C30.9238 51.5321 30.2761 51.1231 29.8444 50.5096C29.4126 49.8961 29.2687 49.2145 29.4126 48.4647L30.4201 43.2841C30.7079 41.8527 32.2191 40.8302 33.8022 41.1028C35.0256 41.3073 35.9611 42.2617 36.105 43.4205C39.1993 41.7163 42.2937 40.9665 45.9637 41.0347C51.5047 41.0347 56.6859 43.0115 60.4999 46.6242C65.6811 51.4639 67.768 58.6212 65.9689 65.3014C65.753 66.392 64.6017 67.1419 63.2344 67.1419ZM46.0357 44.8519C46.1076 44.8519 46.1076 44.8519 46.0357 44.8519C50.4253 44.8519 54.4551 46.4197 57.5495 49.2826C61.6512 53.0999 63.3064 58.8257 61.8671 64.0744C61.6512 64.8243 62.155 65.5741 62.8746 65.7104C63.0185 65.7104 63.0905 65.7786 63.2344 65.7786C63.7381 65.7786 64.4577 65.5059 64.6017 64.8242C66.2568 58.6212 64.3138 51.9411 59.4924 47.4422C55.8943 44.1021 51.0729 42.2617 45.9637 42.2617C45.8917 42.2617 45.8198 42.2617 45.7478 42.2617C42.0778 42.2617 38.9115 43.1478 35.7452 45.1246C35.5293 45.2609 35.1695 45.2609 34.9536 45.1246C34.7377 44.9882 34.5938 44.7156 34.6658 44.4429L34.7377 43.9658C34.8817 43.216 34.3779 42.4661 33.5864 42.3298C32.7948 42.1935 32.0752 42.6706 31.9313 43.4205L30.9238 48.601C30.8518 48.9418 30.9238 49.3508 31.1397 49.6235C31.3556 49.8961 31.7154 50.1006 32.0752 50.1688L37.6162 51.1231C38.4078 51.2594 39.1274 50.7823 39.2713 50.0325C39.4152 49.2826 38.9115 48.601 38.1199 48.4647L37.7601 48.3965C37.4723 48.3283 37.2564 48.1238 37.1844 47.8512C37.1125 47.5785 37.2564 47.3059 37.4723 47.1695C39.9909 45.6699 42.4376 44.9882 46.0357 44.7838C46.0357 44.8519 46.0357 44.8519 46.0357 44.8519Z" fill="black"/>
<path d="M46.9711 79.8887C46.8992 79.8887 46.8272 79.8887 46.7552 79.8887C41.2142 79.8887 36.033 77.9119 32.2191 74.2992C27.0379 69.4595 24.951 62.3021 26.75 55.622C27.0379 54.4632 28.1892 53.6452 29.5565 53.6452C29.7724 53.6452 30.0602 53.6452 30.2761 53.7134C31.7873 54.1224 32.7228 55.5538 32.363 57.0534C31.0677 61.8932 32.5789 67.0737 36.3209 70.5501C39.1274 73.1404 42.7974 74.5718 46.6833 74.5718L46.7552 75.2535V74.5718C49.4178 74.4355 51.4327 74.0265 53.3037 73.0722C52.4402 72.4587 51.9365 71.4362 52.1523 70.3456C52.4402 68.9141 53.9514 67.8917 55.5345 68.1643L61.0755 69.1186C61.8671 69.255 62.5148 69.664 62.9465 70.2774C63.3783 70.8909 63.5222 71.5726 63.3783 72.3224L62.3708 77.5029C62.083 78.9344 60.5718 79.9569 58.9887 79.6842C57.7653 79.4797 56.8298 78.5254 56.6859 77.3666C53.5196 79.1389 50.4972 79.8887 46.9711 79.8887ZM46.7552 78.5254C50.5692 78.5936 53.6635 77.6393 56.9737 75.6625C57.1896 75.5261 57.5494 75.5261 57.7653 75.6625C57.9812 75.7988 58.1251 76.0715 58.0532 76.3441L57.9812 76.8213C57.8373 77.5711 58.341 78.3209 59.1326 78.4572C59.9241 78.5936 60.6438 78.1164 60.7877 77.3666L61.7951 72.1861C61.8671 71.8452 61.7951 71.4363 61.5793 71.1636C61.3634 70.8909 61.0036 70.6864 60.6438 70.6183L55.1027 69.664C54.3112 69.5276 53.5916 70.0048 53.4476 70.7546C53.3037 71.5044 53.8074 72.1861 54.599 72.3224L54.9588 72.3906C55.2467 72.4587 55.4626 72.6632 55.5345 72.9359C55.6065 73.2085 55.4625 73.4812 55.2467 73.6175C52.728 75.1172 50.2813 75.7988 46.6833 76.0033C46.6113 76.0033 46.6113 76.0033 46.5394 76.0033C42.2217 76.0033 38.1919 74.4355 35.0975 71.5726C30.9957 67.7553 29.3406 62.0295 30.7798 56.7808C30.9957 56.031 30.492 55.2812 29.7724 55.1448C29.6285 55.1448 29.5565 55.1448 29.4126 55.0767C28.9089 55.0767 28.1892 55.3493 28.0453 56.031C26.3902 62.234 28.3332 68.9141 33.1546 73.413C36.7526 76.6849 41.574 78.5254 46.7552 78.5254Z" fill="black"/>
<path d="M86.8377 64.6198H65.9689C65.5371 64.6198 65.2493 64.3471 65.2493 63.9381C65.2493 63.5291 65.5371 63.2565 65.9689 63.2565H86.8377C88.061 63.2565 88.6367 62.7111 88.6367 61.5523V9.40615C88.6367 8.24734 87.7012 7.3612 86.4779 7.3612H3.36264C2.1393 7.3612 1.56361 7.90652 1.56361 9.06532V61.5523C1.56361 62.7111 2.1393 63.2565 3.36264 63.2565H26.3902C26.822 63.2565 27.1099 63.5291 27.1099 63.9381C27.1099 64.3471 26.822 64.6198 26.3902 64.6198H3.36264C1.41969 64.6198 0.12439 63.3928 0.12439 61.5523V9.06532C0.12439 7.22487 1.41969 5.9979 3.36264 5.9979H86.4779C88.4928 5.9979 90.0759 7.49753 90.0759 9.40615V61.5523C90.0759 63.3928 88.7806 64.6198 86.8377 64.6198Z" fill="black"/>
<path d="M26.0304 59.8482H5.16169C4.72992 59.8482 4.44208 59.5755 4.44208 59.1666V11.4511C4.44208 11.0421 4.72992 10.7694 5.16169 10.7694H74.9641C75.3959 10.7694 75.6837 11.0421 75.6837 11.4511C75.6837 11.8601 75.3959 12.1327 74.9641 12.1327H5.8813V58.4849H26.0304C26.4622 58.4849 26.7501 58.7576 26.7501 59.1666C26.7501 59.5755 26.4622 59.8482 26.0304 59.8482Z" fill="black"/>
<path d="M85.0387 59.8482H66.3287C65.897 59.8482 65.6091 59.5755 65.6091 59.1666C65.6091 58.7576 65.897 58.4849 66.3287 58.4849H84.319V12.1327H81.4406C81.0088 12.1327 80.721 11.8601 80.721 11.4511C80.721 11.0421 81.0088 10.7694 81.4406 10.7694H85.0387C85.4704 10.7694 85.7583 11.0421 85.7583 11.4511V59.1666C85.7583 59.5755 85.4704 59.8482 85.0387 59.8482Z" fill="black"/>
<path d="M5.16169 40.8302C4.94581 40.8302 4.80188 40.762 4.65796 40.6257C4.37012 40.353 4.37012 39.944 4.65796 39.6714L16.1718 28.6968C16.4596 28.4242 16.8914 28.4242 17.1792 28.6968C17.4671 28.9695 17.4671 29.3785 17.1792 29.6511L5.66542 40.6257C5.5215 40.762 5.37757 40.8302 5.16169 40.8302Z" fill="black"/>
<path d="M31.0677 43.4205C30.8518 43.4205 30.7079 43.3523 30.564 43.216L16.1718 29.6511C15.8839 29.3785 15.8839 28.9695 16.1718 28.6968C16.4596 28.4242 16.8914 28.4242 17.1792 28.6968L31.5715 42.2617C31.8593 42.5343 31.8593 42.9433 31.5715 43.216C31.4275 43.3523 31.2836 43.4205 31.0677 43.4205Z" fill="black"/>
<path d="M25.3108 34.0137C25.0949 34.0137 24.951 33.9455 24.8071 33.8092C24.5192 33.5365 24.5192 33.1276 24.8071 32.8549L36.3209 21.9485C36.6087 21.6758 37.0405 21.6758 37.3283 21.9485C37.6162 22.2212 37.6162 22.6301 37.3283 22.9028L25.8145 33.8092C25.6706 33.9455 25.5267 34.0137 25.3108 34.0137Z" fill="black"/>
<path d="M60.5718 40.8302C60.3559 40.8302 60.212 40.762 60.0681 40.6257C59.7802 40.353 59.7802 39.944 60.0681 39.6714L71.6538 28.6968C71.9417 28.4242 72.3735 28.4242 72.6613 28.6968C72.9491 28.9695 72.9491 29.3785 72.6613 29.6511L61.0755 40.6257C60.9316 40.762 60.7877 40.8302 60.5718 40.8302Z" fill="black"/>
<path d="M64.2418 49.0782C64.0259 49.0782 63.882 49.01 63.7381 48.8737L36.3209 22.9028C36.033 22.6301 36.033 22.2212 36.3209 21.9485C36.6087 21.6758 37.0405 21.6758 37.3283 21.9485L64.7456 47.9193C65.0334 48.192 65.0334 48.601 64.7456 48.8737C64.6016 49.01 64.4577 49.0782 64.2418 49.0782Z" fill="black"/>
<path d="M84.8228 42.398C84.6069 42.398 84.463 42.3298 84.319 42.1935L71.7258 29.583C71.438 29.3103 71.438 28.9013 71.7258 28.6287C72.0137 28.356 72.4454 28.356 72.7333 28.6287L85.3265 41.2392C85.6144 41.5118 85.6144 41.9208 85.3265 42.1935C85.1826 42.398 84.9667 42.398 84.8228 42.398Z" fill="black"/>
<path d="M57.0457 27.1972C54.2392 27.1972 52.0084 25.0159 52.0084 22.4257C52.0084 19.7672 54.3112 17.6541 57.0457 17.6541C58.1251 17.6541 59.1326 17.9268 59.9961 18.5403C60.3559 18.7447 60.4279 19.1537 60.14 19.4946C59.9242 19.8354 59.4924 19.9035 59.1326 19.6309C58.4849 19.2219 57.7653 19.0174 57.0457 19.0174C55.0308 19.0174 53.4476 20.5852 53.4476 22.4257C53.4476 24.3343 55.1028 25.8339 57.0457 25.8339C59.0606 25.8339 60.6438 24.2661 60.6438 22.4257C60.6438 22.0167 60.9316 21.744 61.3634 21.744C61.7951 21.744 62.083 22.0167 62.083 22.4257C62.083 25.0841 59.7802 27.1972 57.0457 27.1972Z" fill="black"/>
<path d="M44.6684 55.8946C44.4525 55.8946 44.3086 55.8265 44.1647 55.6901L40.5666 52.4182C40.2787 52.1456 40.2787 51.7366 40.5666 51.4639C40.8544 51.1913 41.2862 51.1913 41.574 51.4639L45.1721 54.7358C45.46 55.0085 45.46 55.4175 45.1721 55.6901C45.0282 55.8265 44.8843 55.8946 44.6684 55.8946Z" fill="black"/>
</g>
<defs>
<clipPath id="clip0_40_134">
<rect width="89.9515" height="85.2062" fill="white" transform="translate(0.12439 0.34021)"/>
</clipPath>
</defs>
</svg>
