<svg width="93" height="99" viewBox="0 0 93 99" fill="none" xmlns="http://www.w3.org/2000/svg">
<g clip-path="url(#clip0_40_157)">
<path d="M90.5856 11.4317C79.9513 11.4317 69.3106 11.4317 58.6742 11.4317C42.6679 11.4317 26.6616 11.4317 10.6575 11.4317C8.05974 11.4317 5.46412 11.4317 2.86636 11.4317C1.69338 11.4317 0.714111 12.4739 0.714111 13.7224C0.714111 27.3725 0.714111 41.0204 0.714111 54.6706C0.714111 62.6513 0.714111 70.6389 0.714111 78.6197C0.714111 79.8681 1.69338 80.9104 2.86636 80.9104C11.159 80.9104 19.4516 80.9104 27.742 80.9104C29.367 80.9104 30.0127 79.3481 29.735 78.047C29.5392 77.1262 28.8935 76.329 27.742 76.329C20.1683 76.329 12.5924 76.329 5.01861 76.329C5.01861 63.4439 5.01861 50.5588 5.01861 37.6714C5.01861 35.0944 5.01861 32.5174 5.01861 29.9427H88.4333C88.4333 38.1846 88.4333 46.4264 88.4333 54.6706C88.4333 61.8862 88.4333 69.1133 88.4333 76.329C76.4324 76.329 64.4357 76.329 52.4283 76.329C52.2024 76.329 51.9742 76.329 51.7504 76.329C50.5989 76.329 49.9533 77.1262 49.7552 78.047C49.4776 79.3481 50.1254 80.9104 51.7504 80.9104C64.4702 80.9104 77.1878 80.9104 89.9076 80.9104C90.1314 80.9104 90.3574 80.9104 90.5813 80.9104C91.7542 80.9104 92.7335 79.8681 92.7335 78.6197C92.7335 64.9695 92.7335 51.3216 92.7335 37.6714C92.7335 29.6884 92.7335 21.7054 92.7335 13.7224C92.7378 12.4739 91.7585 11.4317 90.5856 11.4317ZM19.4688 24.216C16.5999 24.216 13.7288 24.216 10.8598 24.216C9.47161 24.216 9.47161 21.9253 10.8598 21.9253C13.7288 21.9253 16.5999 21.9253 19.4688 21.9253C20.857 21.9253 20.857 24.216 19.4688 24.216ZM19.4688 19.6346C16.5999 19.6346 13.7288 19.6346 10.8598 19.6346C9.47161 19.6346 9.47161 17.3439 10.8598 17.3439C13.7288 17.3439 16.5999 17.3439 19.4688 17.3439C20.857 17.3439 20.857 19.6346 19.4688 19.6346ZM83.2292 23.0706C71.3014 23.0706 59.3758 23.0706 47.448 23.0706C44.6716 23.0706 44.6716 18.4893 47.448 18.4893C59.3758 18.4893 71.3014 18.4893 83.2292 18.4893C86.0056 18.4893 86.0056 23.0706 83.2292 23.0706Z" fill="white"/>
<path d="M69.8723 41.6022C67.4144 42.5918 64.7887 42.1795 62.757 44.248C59.3779 47.7 61.8746 53.7841 64.7327 56.5856C68.7725 60.5485 74.9301 59.2657 78.7848 55.7724C80.7347 54.0063 82.1057 51.4453 82.4716 48.7515C82.8331 46.0691 82.0928 43.7234 80.8122 41.4488C79.3164 38.787 77.3815 36.3199 75.3735 34.0682C75.2529 33.8116 75.0635 33.6605 74.8354 33.6009C74.8268 33.5963 74.816 33.5963 74.8053 33.5917C74.7428 33.578 74.6826 33.562 74.6159 33.5597C74.0735 33.4795 73.5548 33.9193 73.4257 34.4874V34.4897C73.3955 34.6134 73.3955 34.7394 73.4128 34.8699C73.4128 34.9135 73.3998 34.9478 73.4085 34.9913C73.8712 38.0746 72.6272 40.4913 69.8723 41.6022ZM70.6148 56.7528C67.9848 56.6887 65.8411 55.0188 64.5089 52.7006C63.4694 50.8978 62.8215 48.3735 63.874 46.4218C65.1417 44.0808 68.6649 44.5274 70.7483 43.6845C70.7504 43.6845 70.7547 43.6822 70.7569 43.6799C70.4663 45.8744 71.6866 48.4514 73.9401 48.6782C75.268 48.811 75.933 48.1559 76.5852 47.0083C77.2136 45.9019 77.9777 45.8286 79.0366 46.3921C79.551 46.6669 80.061 47.1045 80.4269 47.6245C80.2849 52.7739 75.3132 56.8696 70.6148 56.7528ZM75.4854 38.2762C75.5241 38.1204 75.5349 37.9601 75.5607 37.802C75.9503 38.2922 76.3635 38.7549 76.738 39.2543C78.1628 41.1556 79.8178 43.4142 80.2827 45.856C79.2002 44.9787 77.8098 44.5275 76.6863 45.1528C75.608 45.753 75.6274 47.526 74.2457 47.5672C72.3302 47.6245 71.2928 44.8229 71.9428 43.2126C71.9664 43.153 71.9385 43.1049 71.9449 43.0454C73.6796 42.0077 74.9947 40.4065 75.4854 38.2762Z" fill="#EE2284"/>
<path d="M59.4791 49.6677C59.3887 49.7754 59.2983 49.8831 59.2079 49.993C59.195 50.0091 59.2036 50.0274 59.1929 50.0411C59.167 50.0686 59.1477 50.0846 59.124 50.1121C57.4366 52.7487 58.3277 56.4207 60.0774 58.764C62.2297 61.6389 65.5528 62.5276 68.5121 60.45C68.9705 60.1316 68.779 59.4238 68.2409 59.3848C64.0053 59.0802 60.9039 54.2399 60.3981 50.0732C60.3465 49.6265 59.8299 49.2508 59.4791 49.6677ZM66.5105 60.1843C64.4982 60.8532 62.5245 60.0697 61.0158 58.1891C59.6276 56.4642 58.8184 53.752 59.6126 51.5782C60.5122 55.3418 63.0217 59.0389 66.5105 60.1843Z" fill="#EE2284"/>
<path d="M64.3023 64.9122C65.0448 64.3487 64.9932 63.1141 64.0462 62.8186C60.6994 61.7671 57.4646 58.2418 57.6734 54.2766C57.725 53.2664 56.4681 52.7785 55.8354 53.4657C51.5438 58.1364 47.2436 62.8071 42.9455 67.4686C40.1347 70.5175 37.3217 73.5664 34.5001 76.6062C34.0546 77.0849 33.6069 77.5637 33.1593 78.0424C32.7783 78.4525 32.3995 78.8625 32.0164 79.268C31.0156 80.3262 30.088 81.1807 30.3075 82.846C30.4517 83.9478 31.6075 84.9809 32.2489 85.7781C33.3422 87.141 34.6422 86.8593 35.9529 86.0988C35.9593 86.0942 35.9658 86.0942 35.9723 86.0896C37.735 85.0038 39.3793 83.6386 41.0451 82.4039C42.9929 80.9585 44.9278 79.497 46.8691 78.0447C48.1755 77.062 49.4884 76.0885 50.7926 75.1058C55.2952 71.7156 59.802 68.3162 64.3023 64.9122ZM43.1371 78.047C42.1363 78.7961 41.1377 79.5497 40.1326 80.2965C38.4086 81.5815 36.7062 82.9972 34.8811 84.1173C34.2419 84.4884 34.102 84.5869 33.6586 84.0394C33.3444 83.6477 33.0301 83.2583 32.7181 82.8689C32.1714 82.1886 32.6104 81.8541 33.1334 81.3112C33.7813 80.6469 34.4097 79.9597 35.0425 79.2794C35.4256 78.8671 35.8044 78.457 36.1875 78.0424C38.4473 75.6097 40.7008 73.1679 42.9542 70.7306C47.235 66.0874 51.5136 61.4396 55.7859 56.7941C56.5198 59.9667 58.8335 62.6788 61.5647 64.1815C57.6131 67.1686 53.6616 70.1533 49.7015 73.1289C47.5148 74.7713 45.3259 76.4092 43.1371 78.047Z" fill="#EE2284"/>
</g>
<defs>
<clipPath id="clip0_40_157">
<rect width="92.0194" height="97.9381" fill="white" transform="translate(0.714111 0.113403)"/>
</clipPath>
</defs>
</svg>
