<svg width="93" height="88" viewBox="0 0 93 88" fill="none" xmlns="http://www.w3.org/2000/svg">
<g clip-path="url(#clip0_44_164)">
<path d="M47.7824 9.12888C46.8622 9.12888 46.2488 8.54784 46.2488 7.67619V1.86508C46.2488 0.993427 46.8622 0.412384 47.7824 0.412384C48.7026 0.412384 49.316 0.993427 49.316 1.86508V7.67602C49.3162 8.54784 48.7026 9.12888 47.7824 9.12888Z" fill="#A70955"/>
<path d="M1.77271 65.7861H90.7249V7.67618H1.77271V65.7861Z" fill="#EE2284"/>
<path d="M86.1239 65.7861H90.7249V7.67618H86.1239V65.7861Z" fill="#A70955"/>
<path d="M1.77271 65.7861H6.37367V7.67618H1.77271V65.7861Z" fill="white"/>
<path d="M30.9124 54.164V19.2981L61.5854 36.7311L30.9124 54.164Z" fill="#1CD759"/>
<path d="M30.9124 19.2981V22.2036L53.9172 36.7311L30.9124 51.2587V54.164L61.5854 36.7311L30.9124 19.2981Z" fill="#15A143"/>
<path d="M47.7825 84.6718C46.8623 84.6718 46.2489 84.0907 46.2489 83.2191V65.7861C46.2489 64.9144 46.8623 64.3334 47.7825 64.3334C48.7027 64.3334 49.3161 64.9144 49.3161 65.7861V83.2191C49.3163 84.0907 48.7027 84.6718 47.7825 84.6718Z" fill="#EE2284"/>
<path d="M69.2537 87.5773C68.7936 87.5773 68.4868 87.4321 68.1802 87.1415L46.709 66.803C46.0956 66.2219 46.0956 65.3503 46.709 64.7691C47.3224 64.188 48.2425 64.188 48.8561 64.7691L70.3274 85.1076C70.9408 85.6887 70.9408 86.5603 70.3274 87.1415C70.0206 87.4321 69.7138 87.5773 69.2537 87.5773Z" fill="#EE2284"/>
<path d="M26.3114 87.5772C25.8513 87.5772 25.5445 87.4319 25.2379 87.1413C24.6245 86.5603 24.6245 85.6887 25.2379 85.1074L46.709 64.7691C47.3224 64.188 48.2425 64.188 48.8561 64.7691C49.4695 65.3501 49.4695 66.2218 48.8561 66.803L27.3849 87.1413C27.0781 87.4319 26.7715 87.5772 26.3114 87.5772Z" fill="#EE2284"/>
<path d="M92.2585 67.2388H0.239136V6.22333H92.2585V67.2388ZM3.30651 64.3334H89.1913V9.12888H3.30651V64.3334Z" fill="black"/>
<path d="M46.2488 9.12888C45.3286 9.12888 44.7152 8.54784 44.7152 7.67619V1.86508C44.7152 0.993427 45.3286 0.412384 46.2488 0.412384C47.169 0.412384 47.7824 0.993427 47.7824 1.86508V7.67602C47.7824 8.54784 47.169 9.12888 46.2488 9.12888Z" fill="black"/>
<path d="M46.2488 84.6718C45.3286 84.6718 44.7152 84.0907 44.7152 83.2191V65.7861C44.7152 64.9144 45.3286 64.3334 46.2488 64.3334C47.169 64.3334 47.7824 64.9144 47.7824 65.7861V83.2191C47.7824 84.0907 47.169 84.6718 46.2488 84.6718Z" fill="black"/>
<path d="M67.7201 87.5773C67.26 87.5773 66.9532 87.4321 66.6466 87.1415L45.1754 66.803C44.562 66.2219 44.562 65.3503 45.1754 64.7691C45.7888 64.188 46.709 64.188 47.3226 64.7691L68.7936 85.1076C69.407 85.6887 69.407 86.5603 68.7936 87.1415C68.4868 87.4321 68.1802 87.5773 67.7201 87.5773Z" fill="black"/>
<path d="M24.7776 87.5773C24.3175 87.5773 24.0107 87.4321 23.7041 87.1415C23.0907 86.5605 23.0907 85.6888 23.7041 85.1076L45.1753 64.7691C45.7887 64.188 46.7089 64.188 47.3225 64.7691C47.9359 65.3501 47.9359 66.2218 47.3225 66.803L25.8513 87.1415C25.5445 87.4321 25.2377 87.5773 24.7776 87.5773Z" fill="black"/>
<path d="M30.9123 55.6169C30.6055 55.6169 30.4522 55.6169 30.1454 55.4717C29.6853 55.1811 29.3785 54.7452 29.3785 54.1642V19.2982C29.3785 18.7172 29.6853 18.2814 30.1454 17.9908C30.6055 17.7001 31.2189 17.7001 31.679 17.9908L62.3522 35.4237C62.8123 35.7143 63.1191 36.1502 63.1191 36.7312C63.1191 37.3123 62.8123 37.7481 62.3522 38.0387L31.679 55.4717C31.5257 55.6169 31.2189 55.6169 30.9123 55.6169ZM32.4459 21.913V51.6943L58.6714 36.731L32.4459 21.913Z" fill="black"/>
</g>
<defs>
<clipPath id="clip0_44_164">
<rect width="92.0194" height="87.1649" fill="white" transform="translate(0.239136 0.412384)"/>
</clipPath>
</defs>
</svg>
