<?xml version="1.0" encoding="utf-8"?>
<!-- Generator: Adobe Illustrator 27.2.0, SVG Export Plug-In . SVG Version: 6.00 Build 0)  -->
<svg version="1.1" id="Layer_1" xmlns="http://www.w3.org/2000/svg" xmlns:xlink="http://www.w3.org/1999/xlink" x="0px" y="0px"
	 viewBox="0 0 185.62 24.4" style="enable-background:new 0 0 185.62 24.4;" xml:space="preserve">
<style type="text/css">
	.st0{fill-rule:evenodd;clip-rule:evenodd;fill:url(#SVGID_1_);}
	.st1{fill:#7BC8A6;}
	.st2{fill:url(#SVGID_00000149363523178529574760000008944327714701260194_);}
	.st3{fill:url(#SVGID_00000000910262440008797690000005326939935562340739_);}
	.st4{fill:url(#SVGID_00000171718834352167293060000014281940034583488436_);}
	.st5{fill:url(#SVGID_00000002343523223203066060000016606435019109366159_);}
</style>
<linearGradient id="SVGID_1_" gradientUnits="userSpaceOnUse" x1="-0.9418" y1="22.8257" x2="124.1495" y2="4.8506" gradientTransform="matrix(1 0 0 -1 0 26.528)">
	<stop  offset="0" style="stop-color:#FEF5A0"/>
	<stop  offset="0.6354" style="stop-color:#93D4CB"/>
	<stop  offset="1" style="stop-color:#719AD1"/>
</linearGradient>
<path class="st0" d="M6.16,5.64h5.4V0.43H6.26C1,0.28,0.15,1.15,0,6.97v1.47c-0.06,5.21,1,6.69,4.88,6.58h0.96v4.17H0.11v5.21h5.7
	c4.12,0,4.4-0.07,5.43-1.33c0.69-1.15,0.82-1.91,0.93-5.43v-1.47c0-5.07-1.03-6.43-4.91-6.36h-1.1V5.64z M21.8,5.64h2.78V0.43H12.86
	v5.21h2.78V24.4h6.15V5.64z M32.07,24.4h-6.15V5.32c0.07-4.24,0.86-4.89,6.19-4.89h2.51c5.33,0,6.12,0.61,6.19,4.89V24.4h-6.15
	v-5.07h-2.58L32.07,24.4L32.07,24.4z M34.64,14.02V7.69c0-1.55-0.41-2.23-1.31-2.23c-0.89,0-1.27,0.72-1.27,2.23v6.33H34.64z
	 M57.91,5.07c-0.17-4.13-0.93-4.74-5.5-4.64h-9.38V24.4h6.15v-9.38h0.79c1.31,0.04,1.82,0.65,1.79,2.16v3.2
	c0,1.69,0.14,2.98,0.48,4.03h6.15c-0.27-1.01-0.48-2.44-0.48-4.03v-3.7c0.07-2.7-0.79-3.85-3.37-4.56c2.58-0.22,3.47-1.73,3.37-5.5
	V5.07z M51.79,7.76c0,1.69-0.31,2.05-1.75,2.05h-0.86V5.64h0.86C51.34,5.64,51.79,6.18,51.79,7.76z M74.79,19.08
	c0.07,4.78-0.65,5.43-6.08,5.32h-2.54c-5.84,0.07-6.25-0.36-6.19-6.47l-0.03-1.87V8.88c0.06-7.8,0.58-8.48,6.22-8.45h8.63v5.89
	c-0.72-0.36-2.44-0.61-4.47-0.68h-2.17c-1.89,0-2.06,0.18-2.06,2.19v8.52c-0.03,2.52,0.14,2.8,1.55,2.84h1V13.4
	c0-0.97-0.17-1.8-0.48-2.7h6.63L74.79,19.08L74.79,19.08z M76.88,24.4h6.15v-5.07h2.58v5.07h6.15V5.32
	c-0.07-4.28-0.86-4.89-6.19-4.89h-2.51c-5.33,0-6.12,0.65-6.19,4.89V24.4z M85.61,7.69v6.33h-2.58V7.69c0-1.51,0.38-2.23,1.27-2.23
	S85.61,6.14,85.61,7.69z M105.78,0.43l-5.12,18.76h5.5l-0.69,5.21h-12.3l5.19-18.76h-5.12l0.72-5.21H105.78z M113.61,5.64h5.67V0.43
	h-5.74c-5.36-0.07-5.94,0.65-6.08,7.69v7.66c-0.03,3.52,0.24,6.11,0.72,6.94c0.93,1.55,1.27,1.65,5.36,1.69h5.74v-5.21h-5.67v-4.17
	h5.67V9.81h-5.67V5.64z"/>
<g>
	<g>
		<path class="st1" d="M122.91,24.16V5.43h3.85c6.29,0,9.46,4.57,9.46,9.39c0,4.79-3.14,9.34-9.46,9.34H122.91z M126.75,20.55
			c3.65,0,5.47-2.76,5.47-5.76s-1.82-5.76-5.47-5.76V20.55z"/>
		<path class="st1" d="M155.23,14.82c0,4.79-3.15,9.58-9.46,9.58c-6.31,0-9.46-4.79-9.46-9.58c0-4.81,3.17-9.63,9.46-9.63
			C152.06,5.19,155.23,10,155.23,14.82z M140.31,14.8c0,3,1.81,6,5.47,6c3.65,0,5.47-3,5.47-6s-1.81-6-5.47-6
			C142.12,8.79,140.31,11.8,140.31,14.8z"/>
		<path class="st1" d="M173.43,18.5c-1.18,3.29-4.02,5.9-8.56,5.9c-6.32,0-9.46-4.79-9.46-9.58c0-4.81,3.17-9.63,9.46-9.63
			c4.4,0,7.23,2.49,8.47,5.69l-3.87,0.94c-0.77-1.74-2.32-3.02-4.6-3.02c-3.65,0-5.47,3-5.47,6s1.82,6,5.47,6
			c2.37,0,3.92-1.4,4.67-3.24L173.43,18.5z"/>
		<path class="st1" d="M177.47,10.61c0,2.54,7.79,1.52,7.79,7.72c0,3.41-3.02,6.07-6.46,6.07c-2.64,0-4.67-1.33-5.71-3.02l3.58-1.86
			c0.36,0.68,1.06,1.28,2.08,1.28c1.33,0,2.42-1.06,2.42-2.42c0-3.46-7.79-1.38-7.79-7.72c0-3.07,2.76-5.47,5.85-5.47
			c2.61,0,4.65,1.45,5.49,3.29l-3.94,1.14c-0.29-0.46-0.89-0.82-1.5-0.82C178.35,8.79,177.47,9.57,177.47,10.61z"/>
	</g>
	<g>
		
			<linearGradient id="SVGID_00000176013946009551360440000001664585584396596148_" gradientUnits="userSpaceOnUse" x1="195.4864" y1="15.1853" x2="131.8766" y2="14.4528">
			<stop  offset="0" style="stop-color:#FEF5A0"/>
			<stop  offset="0.6354" style="stop-color:#93D4CB"/>
			<stop  offset="1" style="stop-color:#719AD1"/>
		</linearGradient>
		<path style="fill:url(#SVGID_00000176013946009551360440000001664585584396596148_);" d="M122.91,24.16V5.43h3.85
			c6.29,0,9.46,4.57,9.46,9.39c0,4.79-3.14,9.34-9.46,9.34H122.91z M126.75,20.55c3.65,0,5.47-2.76,5.47-5.76s-1.82-5.76-5.47-5.76
			V20.55z"/>
		
			<linearGradient id="SVGID_00000137118017881331720650000012710979960089440389_" gradientUnits="userSpaceOnUse" x1="195.4864" y1="15.1853" x2="131.8766" y2="14.4528">
			<stop  offset="0" style="stop-color:#FEF5A0"/>
			<stop  offset="0.6354" style="stop-color:#93D4CB"/>
			<stop  offset="1" style="stop-color:#719AD1"/>
		</linearGradient>
		<path style="fill:url(#SVGID_00000137118017881331720650000012710979960089440389_);" d="M155.23,14.82
			c0,4.79-3.15,9.58-9.46,9.58c-6.31,0-9.46-4.79-9.46-9.58c0-4.81,3.17-9.63,9.46-9.63C152.06,5.19,155.23,10,155.23,14.82z
			 M140.31,14.8c0,3,1.81,6,5.47,6c3.65,0,5.47-3,5.47-6s-1.81-6-5.47-6C142.12,8.79,140.31,11.8,140.31,14.8z"/>
		
			<linearGradient id="SVGID_00000100357594693354804750000011530211330254986121_" gradientUnits="userSpaceOnUse" x1="195.4864" y1="15.1853" x2="131.8766" y2="14.4528">
			<stop  offset="0" style="stop-color:#FEF5A0"/>
			<stop  offset="0.6354" style="stop-color:#93D4CB"/>
			<stop  offset="1" style="stop-color:#719AD1"/>
		</linearGradient>
		<path style="fill:url(#SVGID_00000100357594693354804750000011530211330254986121_);" d="M173.43,18.5
			c-1.18,3.29-4.02,5.9-8.56,5.9c-6.32,0-9.46-4.79-9.46-9.58c0-4.81,3.17-9.63,9.46-9.63c4.4,0,7.23,2.49,8.47,5.69l-3.87,0.94
			c-0.77-1.74-2.32-3.02-4.6-3.02c-3.65,0-5.47,3-5.47,6s1.82,6,5.47,6c2.37,0,3.92-1.4,4.67-3.24L173.43,18.5z"/>
		
			<linearGradient id="SVGID_00000016762635683925120250000012858643272982495877_" gradientUnits="userSpaceOnUse" x1="195.4864" y1="15.1853" x2="131.8766" y2="14.4528">
			<stop  offset="0" style="stop-color:#FEF5A0"/>
			<stop  offset="0.6354" style="stop-color:#93D4CB"/>
			<stop  offset="1" style="stop-color:#719AD1"/>
		</linearGradient>
		<path style="fill:url(#SVGID_00000016762635683925120250000012858643272982495877_);" d="M177.47,10.61
			c0,2.54,7.79,1.52,7.79,7.72c0,3.41-3.02,6.07-6.46,6.07c-2.64,0-4.67-1.33-5.71-3.02l3.58-1.86c0.36,0.68,1.06,1.28,2.08,1.28
			c1.33,0,2.42-1.06,2.42-2.42c0-3.46-7.79-1.38-7.79-7.72c0-3.07,2.76-5.47,5.85-5.47c2.61,0,4.65,1.45,5.49,3.29l-3.94,1.14
			c-0.29-0.46-0.89-0.82-1.5-0.82C178.35,8.79,177.47,9.57,177.47,10.61z"/>
	</g>
</g>
</svg>
