<svg width="106" height="100" viewBox="0 0 106 100" fill="none" xmlns="http://www.w3.org/2000/svg">
<g clip-path="url(#clip0_44_189)">
<path d="M53.132 99.4021C48.6256 99.4021 44.9593 95.9292 44.9593 91.66C44.9593 87.3909 48.6256 83.9177 53.132 83.9177C57.6389 83.9177 61.3055 87.3909 61.3055 91.66C61.3055 95.9292 57.6389 99.4021 53.132 99.4021ZM53.132 88.1295C51.0772 88.1295 49.4057 89.7134 49.4057 91.66C49.4057 93.6067 51.0772 95.1903 53.132 95.1903C55.187 95.1903 56.8591 93.6064 56.8591 91.66C56.8591 89.7134 55.187 88.1295 53.132 88.1295ZM68.9623 90.6863C68.0711 90.6863 67.2302 90.1754 66.889 89.3412C66.4452 88.2567 67.0137 87.0368 68.1584 86.6164C79.3095 82.5221 88.0919 74.0832 92.2537 63.463C92.6808 62.3727 93.9605 61.817 95.1116 62.2216C96.2626 62.6262 96.8492 63.8384 96.4221 64.9287C91.8179 76.6777 82.1018 86.0142 69.7652 90.5434C69.5012 90.6403 69.2294 90.6863 68.9623 90.6863ZM37.2321 90.6863C36.9651 90.6863 36.6933 90.6405 36.4293 90.5434C24.0926 86.0142 14.3766 76.6777 9.7721 64.9287C9.34469 63.8381 9.93161 62.6264 11.0827 62.2216C12.2343 61.8167 13.5131 62.3724 13.9405 63.463C18.1026 74.0832 26.885 82.5221 38.0361 86.6164C39.181 87.0368 39.7493 88.2564 39.3055 89.3412C38.9643 90.1754 38.1231 90.6863 37.2321 90.6863ZM55.5505 80.9511H50.7143C43.7335 80.9511 40.6578 75.6569 38.9509 71.6744L38.3182 70.1971C37.8566 69.1191 38.4049 67.8911 39.5426 67.4539C40.6806 67.0164 41.9767 67.536 42.4383 68.6135L43.0707 70.0907C44.0267 72.3217 45.0255 73.9285 46.1721 75.003L51.3362 68.2994C51.7547 67.7564 52.422 67.435 53.132 67.435C53.842 67.435 54.5092 67.7561 54.9277 68.2994L60.0924 75.0027C61.239 73.9282 62.2375 72.3211 63.1935 70.0902L63.8263 68.6132C64.2879 67.5352 65.5845 67.0169 66.7222 67.4539C67.8599 67.8914 68.4079 69.1194 67.9461 70.1973L67.3133 71.6744C65.6073 75.6563 62.5315 80.9511 55.5505 80.9511ZM50.345 76.7314C50.4667 76.7367 50.5895 76.739 50.7143 76.739H55.5502C55.6753 76.739 55.7981 76.7364 55.9201 76.7314L53.1325 73.1132L50.345 76.7314ZM32.5857 64.1311C32.3073 64.1311 32.0244 64.0813 31.7506 63.976L30.1914 63.3766C25.9871 61.7598 20.3977 58.8464 20.3977 52.2339V47.6533C20.3977 41.0408 25.9871 38.127 30.1911 36.5105L31.7506 35.9109C32.8878 35.4736 34.1847 35.9927 34.6466 37.0702C35.1085 38.1481 34.5604 39.3761 33.4227 39.8136L31.8635 40.413C29.5083 41.3183 27.812 42.2641 26.6774 43.3502L33.7546 48.2424C34.3281 48.6388 34.6672 49.2709 34.6672 49.9435C34.6672 50.616 34.3281 51.248 33.7546 51.6445L26.6774 56.5365C27.8117 57.6226 29.5083 58.5686 31.8635 59.4739L33.4227 60.0733C34.5604 60.5108 35.1085 61.7388 34.6466 62.8167C34.2959 63.6349 33.4639 64.1311 32.5857 64.1311ZM24.8524 47.3024C24.8469 47.4177 24.8441 47.5343 24.8441 47.6525V52.2336C24.8441 52.3518 24.8469 52.4687 24.8524 52.5837L28.6727 49.9432L24.8524 47.3024ZM73.6788 64.1311C72.8004 64.1311 71.9686 63.6349 71.6179 62.8165C71.1563 61.7388 71.7044 60.5105 72.8421 60.0733L74.4016 59.4739C76.7568 58.5684 78.4531 57.6226 79.5874 56.5365L72.5102 51.6445C71.9367 51.248 71.5976 50.616 71.5976 49.9435C71.5976 49.2709 71.9367 48.6388 72.5102 48.2424L79.5872 43.3502C78.4528 42.2643 76.7562 41.3183 74.4013 40.413L72.8421 39.8136C71.7044 39.3764 71.1563 38.1481 71.6179 37.0704C72.0795 35.9927 73.3764 35.4742 74.5139 35.9109L76.0734 36.5103C80.2777 38.127 85.8671 41.0405 85.8671 47.6528V52.2339C85.8671 58.8464 80.278 61.7598 76.0737 63.3764L74.5139 63.976C74.2402 64.0813 73.9573 64.1311 73.6788 64.1311ZM77.5924 49.9435L81.4124 52.584C81.4179 52.4687 81.4207 52.3521 81.4207 52.2339V47.6533C81.4207 47.5351 81.4179 47.418 81.4124 47.3027L77.5924 49.9435ZM97.1722 57.6855C92.6655 57.6855 88.9989 54.2126 88.9989 49.9437C88.9989 45.6746 92.6655 42.2014 97.1722 42.2014C101.679 42.2014 105.346 45.6746 105.346 49.9437C105.346 54.2123 101.679 57.6855 97.1722 57.6855ZM97.1722 46.4132C95.1171 46.4132 93.4453 47.9971 93.4453 49.9437C93.4453 51.8903 95.1171 53.4737 97.1722 53.4737C99.2272 53.4737 100.899 51.8901 100.899 49.9437C100.899 47.9968 99.2272 46.4132 97.1722 46.4132ZM9.09236 57.6855C4.58572 57.6855 0.919434 54.2126 0.919434 49.9437C0.919434 45.6746 4.58572 42.2014 9.09236 42.2014C13.599 42.2014 17.2656 45.6746 17.2656 49.9437C17.2656 54.2123 13.599 57.6855 9.09236 57.6855ZM9.09236 46.4132C7.03732 46.4132 5.36577 47.9971 5.36577 49.9437C5.36577 51.8903 7.0376 53.4737 9.09236 53.4737C11.1474 53.4737 12.8192 51.8901 12.8192 49.9437C12.8192 47.9968 11.1474 46.4132 9.09236 46.4132ZM94.3382 37.5398C93.4353 37.5398 92.5863 37.0151 92.2537 36.1662C88.0919 25.5459 79.3095 17.1071 68.1584 13.0127C67.0135 12.5924 66.4452 11.3728 66.889 10.288C67.3325 9.20372 68.6205 8.66435 69.7655 9.08579C82.1021 13.615 91.8179 22.9512 96.4224 34.7005C96.8498 35.7911 96.2629 37.003 95.1118 37.4076C94.8564 37.4971 94.5949 37.5398 94.3382 37.5398ZM11.856 37.5398C11.599 37.5398 11.3378 37.4974 11.0827 37.4076C9.93161 37.0028 9.34497 35.7906 9.7721 34.7005C14.3766 22.9512 24.0926 13.615 36.4293 9.08579C37.574 8.66567 38.8617 9.20372 39.3058 10.288C39.7496 11.3725 39.181 12.5924 38.0364 13.0127C26.8855 17.1071 18.1029 25.5459 13.9408 36.1662C13.6079 37.0146 12.7586 37.5398 11.856 37.5398ZM40.3777 32.588C40.0995 32.588 39.8163 32.5383 39.5428 32.433C38.4051 31.9958 37.8569 30.7678 38.3184 29.6898L38.9509 28.2128C40.6578 24.23 43.7338 18.9356 50.7143 18.9356H55.5502C62.5313 18.9356 65.607 24.23 67.3136 28.2125L67.9464 29.6895C68.4082 30.7675 67.8602 31.9955 66.7225 32.433C65.5842 32.8697 64.2881 32.3509 63.8265 31.2737L63.1938 29.7967C62.2378 27.5655 61.2393 25.9587 60.0927 24.8839L54.928 31.5875C54.5095 32.1305 53.8423 32.4519 53.1323 32.4519C52.4222 32.4519 51.7547 32.1305 51.3365 31.5875L46.1723 24.8839C45.0257 25.9584 44.027 27.5658 43.071 29.7967L42.4385 31.2734C42.0881 32.0916 41.2558 32.588 40.3777 32.588ZM50.345 23.155L53.1325 26.7734L55.9201 23.155C55.7984 23.1497 55.6753 23.1473 55.5505 23.1473H50.7143C50.5895 23.1473 50.4664 23.15 50.345 23.155ZM53.132 15.9686C48.6256 15.9686 44.9593 12.4958 44.9593 8.22659C44.9593 3.95743 48.6256 0.484558 53.132 0.484558C57.6389 0.484558 61.3055 3.95743 61.3055 8.22659C61.3055 12.4958 57.6389 15.9686 53.132 15.9686ZM53.132 4.69633C51.0772 4.69633 49.4057 6.28023 49.4057 8.22659C49.4057 10.173 51.0772 11.7569 53.132 11.7569C55.187 11.7569 56.8591 10.173 56.8591 8.22659C56.8591 6.28023 55.187 4.69633 53.132 4.69633Z" fill="#EE2284"/>
</g>
<defs>
<clipPath id="clip0_44_189">
<rect width="104.426" height="98.9175" fill="white" transform="translate(0.919189 0.484558)"/>
</clipPath>
</defs>
</svg>
